<?xml version="1.0" encoding="UTF-8" standalone="no"?><!DOCTYPE svg PUBLIC "-//W3C//DTD SVG 1.1//EN" "http://www.w3.org/Graphics/SVG/1.1/DTD/svg11.dtd"><svg width="100%" height="100%" viewBox="0 0 550 163" version="1.1" xmlns="http://www.w3.org/2000/svg" xmlns:xlink="http://www.w3.org/1999/xlink" xml:space="preserve" xmlns:serif="http://www.serif.com/" style="fill-rule:evenodd;clip-rule:evenodd;stroke-linejoin:round;stroke-miterlimit:2;"><rect id="logo" x="0" y="0" width="548.672" height="159.615" style="fill:none;"/><rect x="12.478" y="48.925" width="523.715" height="67.773" style="fill:#fbd35f;"/><g><path d="M136.051,85.748c-5.42,0 -9.563,-1.25 -12.429,-3.752c-2.866,-2.501 -4.3,-5.316 -4.3,-8.442c0,-2.71 0.991,-5.055 2.971,-7.036c1.98,-1.98 4.899,-2.97 8.755,-2.97c1.355,-0 2.945,0.13 4.769,0.391c1.824,0.26 3.205,0.443 4.143,0.547c-0.105,-2.71 -0.704,-5.264 -1.798,-7.661c-1.095,-2.397 -2.476,-4.716 -4.143,-6.957c-1.668,-2.241 -3.231,-4.195 -4.691,-5.863c-3.231,6.149 -6.436,11.257 -9.615,15.321c-3.179,4.065 -6.644,7.922 -10.396,11.57c-1.877,1.876 -3.857,2.814 -5.941,2.814c-1.668,-0 -3.023,-0.599 -4.065,-1.798c-1.043,-1.199 -1.564,-2.684 -1.564,-4.456c0,-2.084 0.73,-4.013 2.189,-5.784l2.032,-2.502c5.733,-7.087 10.058,-12.924 12.977,-17.51c1.772,-3.023 3.856,-7.062 6.254,-12.117c2.397,-5.055 4.742,-10.292 7.035,-15.712c1.98,-4.586 6.097,-6.879 12.351,-6.879c2.918,-0 4.951,0.26 6.097,0.781c1.147,0.522 1.72,1.355 1.72,2.502c0,0.625 -0.208,1.615 -0.625,2.97c-0.417,1.355 -0.99,2.71 -1.72,4.065c-1.876,3.753 -2.814,6.932 -2.814,9.537c-0,1.564 0.547,3.283 1.641,5.16c1.095,1.876 2.789,4.221 5.082,7.035c3.335,4.378 5.862,8.104 7.582,11.178c1.72,3.075 2.58,6.437 2.58,10.085c-0,1.042 -0.104,2.501 -0.313,4.377c5.107,-1.98 11.1,-7.244 17.98,-15.79c1.25,-1.46 2.657,-2.189 4.221,-2.189c1.355,-0 2.423,0.625 3.205,1.876c0.782,1.251 1.172,2.97 1.172,5.159c0,3.961 -0.99,7.192 -2.97,9.693c-5.212,6.463 -10.188,10.866 -14.931,13.211c-4.742,2.345 -10.605,3.622 -17.588,3.831c-4.169,3.543 -9.12,5.315 -14.853,5.315Z" style="fill-rule:nonzero;"/><path d="M189.677,82.309c-4.691,-0 -8.521,-2.163 -11.492,-6.488c-2.97,-4.326 -4.455,-9.72 -4.455,-16.182c-0,-7.817 0.521,-14.983 1.563,-21.497c1.042,-6.514 2.762,-13.419 5.159,-20.715c1.043,-3.127 2.502,-5.368 4.378,-6.723c1.876,-1.355 4.847,-2.033 8.911,-2.033c2.293,0 3.883,0.365 4.769,1.095c0.886,0.729 1.329,1.824 1.329,3.283c-0,0.834 -0.573,3.648 -1.72,8.443c-1.042,3.856 -1.876,7.348 -2.501,10.475c-2.085,10.943 -3.127,18.239 -3.127,21.887c-0,2.189 0.26,3.727 0.781,4.613c0.522,0.886 1.355,1.328 2.502,1.328c1.563,0 3.518,-1.563 5.863,-4.69c2.345,-3.127 4.846,-7.869 7.504,-14.227c2.658,-6.358 5.238,-14.175 7.739,-23.451c0.834,-3.127 2.111,-5.368 3.831,-6.723c1.719,-1.355 4.299,-2.033 7.739,-2.033c2.397,0 4.064,0.287 5.002,0.86c0.939,0.574 1.408,1.642 1.408,3.205c-0,2.606 -1.303,9.746 -3.909,21.419c-2.918,13.342 -4.378,21.576 -4.378,24.702c0,1.981 0.417,3.518 1.251,4.613c0.834,1.094 1.928,1.641 3.283,1.641c2.085,0 4.56,-1.277 7.427,-3.83c2.866,-2.554 6.696,-6.697 11.491,-12.429c1.251,-1.46 2.658,-2.189 4.221,-2.189c1.355,-0 2.423,0.625 3.205,1.876c0.782,1.251 1.173,2.97 1.173,5.159c-0,4.169 -0.991,7.4 -2.971,9.693c-4.482,5.524 -9.302,10.058 -14.462,13.602c-5.159,3.544 -11.022,5.316 -17.588,5.316c-5.003,-0 -8.677,-1.928 -11.022,-5.785c-2.345,-3.856 -3.518,-9.276 -3.518,-16.259c-1.772,7.087 -4.43,12.533 -7.973,16.337c-3.544,3.805 -7.349,5.707 -11.413,5.707Z" style="fill-rule:nonzero;"/><path d="M257.06,82.309c-3.961,-0 -6.749,-2.085 -8.364,-6.254c-1.616,-4.169 -2.423,-10.84 -2.423,-20.012c-0,-13.549 1.928,-26.422 5.784,-38.616c0.938,-3.023 2.476,-5.238 4.612,-6.645c2.137,-1.407 5.134,-2.111 8.99,-2.111c2.085,0 3.544,0.261 4.378,0.782c0.833,0.521 1.25,1.512 1.25,2.971c0,1.667 -0.781,5.42 -2.345,11.256c-1.042,4.169 -1.876,7.817 -2.501,10.944c-0.626,3.127 -1.147,6.984 -1.564,11.57c3.44,-8.964 7.296,-16.26 11.57,-21.888c4.273,-5.629 8.468,-9.641 12.585,-12.039c4.117,-2.397 7.896,-3.596 11.335,-3.596c6.775,0 10.162,3.388 10.162,10.163c0,1.355 -0.469,4.638 -1.407,9.849c-0.834,4.169 -1.251,6.775 -1.251,7.817c0,3.648 1.303,5.472 3.909,5.472c2.918,0 6.671,-2.293 11.257,-6.879c1.355,-1.355 2.762,-2.032 4.221,-2.032c1.355,-0 2.423,0.599 3.205,1.798c0.782,1.198 1.173,2.788 1.173,4.768c-0,3.857 -1.043,6.879 -3.127,9.068c-2.919,3.023 -6.332,5.602 -10.241,7.739c-3.908,2.137 -8.051,3.205 -12.429,3.205c-5.524,0 -9.719,-1.407 -12.586,-4.221c-2.866,-2.814 -4.299,-6.619 -4.299,-11.413c0,-1.564 0.156,-3.127 0.469,-4.69c0.209,-2.085 0.313,-3.492 0.313,-4.222c-0,-1.667 -0.574,-2.501 -1.72,-2.501c-1.563,-0 -3.622,1.746 -6.176,5.237c-2.553,3.492 -5.081,8.104 -7.582,13.837c-2.502,5.732 -4.534,11.777 -6.098,18.135c-1.146,4.899 -2.475,8.208 -3.986,9.928c-1.512,1.72 -3.883,2.58 -7.114,2.58Z" style="fill-rule:nonzero;"/><path d="M397.143,46.975c1.355,0 2.423,0.652 3.205,1.955c0.782,1.303 1.173,2.944 1.173,4.924c-0,2.398 -0.365,4.274 -1.095,5.629c-0.729,1.355 -1.876,2.553 -3.439,3.596l-30.018,20.168c-3.961,21.575 -9.146,38.538 -15.556,50.889c-6.41,12.351 -14.566,18.527 -24.468,18.527c-5.315,-0 -9.641,-1.642 -12.976,-4.925c-3.335,-3.283 -5.003,-7.582 -5.003,-12.898c-0,-4.899 1.12,-9.902 3.361,-15.009c2.241,-5.107 6.41,-10.97 12.508,-17.589c6.097,-6.618 14.722,-14.201 25.874,-22.747l0.469,-3.596c0.73,-3.857 1.564,-9.381 2.502,-16.573c-2.085,7.505 -5.003,13.211 -8.755,17.12c-3.753,3.909 -7.713,5.863 -11.882,5.863c-4.691,-0 -8.521,-2.163 -11.492,-6.488c-2.97,-4.326 -4.455,-9.72 -4.455,-16.182c-0,-7.817 0.521,-14.983 1.563,-21.497c1.042,-6.514 2.762,-13.419 5.159,-20.715c1.043,-3.127 2.502,-5.368 4.378,-6.723c1.876,-1.355 4.847,-2.033 8.912,-2.033c2.293,0 3.882,0.365 4.768,1.095c0.886,0.729 1.329,1.824 1.329,3.283c-0,0.834 -0.573,3.648 -1.72,8.443c-1.042,3.856 -1.876,7.348 -2.501,10.475c-0.834,4.273 -1.564,8.364 -2.189,12.272c-0.626,3.909 -0.938,7.114 -0.938,9.615c-0,3.961 1.094,5.941 3.283,5.941c1.563,0 3.518,-1.563 5.863,-4.69c2.345,-3.127 4.846,-7.869 7.504,-14.227c2.658,-6.358 5.238,-14.175 7.739,-23.451c0.834,-3.127 2.111,-5.368 3.831,-6.723c1.719,-1.355 4.299,-2.033 7.739,-2.033c2.397,0 4.064,0.313 5.003,0.939c0.938,0.625 1.407,1.667 1.407,3.126c-0,2.606 -1.355,11.57 -4.065,26.891l-4.065,25.171c8.025,-6.045 15.842,-11.569 23.451,-16.572c1.355,-0.834 2.554,-1.251 3.596,-1.251Zm-68.478,90.523c2.606,-0 5.524,-3.023 8.755,-9.068c3.231,-6.045 6.462,-16.103 9.693,-30.174c-8.025,6.775 -13.836,12.95 -17.432,18.526c-3.596,5.577 -5.394,10.449 -5.394,14.618c0,1.772 0.339,3.231 1.017,4.378c0.677,1.146 1.798,1.72 3.361,1.72Z" style="fill-rule:nonzero;"/><path d="M408.4,82.309c-5.941,-0 -10.762,-2.345 -14.462,-7.036c-3.7,-4.69 -5.55,-10.839 -5.55,-18.448c-0,-8.338 1.928,-16.234 5.785,-23.686c3.856,-7.452 8.989,-13.445 15.399,-17.979c6.41,-4.534 13.211,-6.801 20.403,-6.801c2.293,-0 3.83,0.443 4.612,1.329c0.782,0.886 1.433,2.475 1.954,4.768c1.981,-0.417 4.169,-0.625 6.567,-0.625c2.501,-0 4.429,0.625 5.784,1.876c1.355,1.251 2.033,3.023 2.033,5.316c-0,2.397 -0.521,6.566 -1.564,12.507c-1.146,6.358 -2.032,12.429 -2.657,18.214c-0.626,5.785 -0.938,12.273 -0.938,19.464c-0,3.961 -0.808,6.801 -2.424,8.521c-1.615,1.72 -4.247,2.58 -7.895,2.58c-3.544,-0 -6.176,-0.86 -7.895,-2.58c-1.72,-1.72 -2.58,-4.508 -2.58,-8.364l0.156,-2.502c-3.231,8.964 -8.807,13.446 -16.728,13.446Zm6.097,-15.791c2.918,0 5.576,-2.032 7.974,-6.097c2.397,-4.065 4.533,-11.309 6.41,-21.732l2.97,-15.79c-4.273,0.104 -8.234,1.745 -11.882,4.924c-3.648,3.179 -6.566,7.375 -8.755,12.586c-2.189,5.211 -3.283,10.736 -3.283,16.572c-0,3.127 0.599,5.498 1.798,7.114c1.198,1.615 2.788,2.423 4.768,2.423Z" style="fill-rule:nonzero;"/></g></svg>